<?xml version="1.0" encoding="UTF-8" standalone="no"?>
<!DOCTYPE svg PUBLIC "-//W3C//DTD SVG 1.1//EN" "http://www.w3.org/Graphics/SVG/1.1/DTD/svg11.dtd">
<svg xmlns="http://www.w3.org/2000/svg" version="1.1" viewBox="0 0 211 239">
<path fill="#1d68af" d="
  M 185.39 89.39
  Q 179.88 84.84 173.85 82.09
  Q 167.79 79.34 160.84 78.58
  Q 143.86 76.73 130.56 87.31
  Q 115.26 99.49 114.25 119.16
  A 0.85 0.82 -88.2 0 1 113.42 119.97
  L 95.31 119.72
  A 0.57 0.54 88.2 0 1 94.78 119.19
  Q 93.42 97.15 75.56 85.19
  Q 68.83 80.68 59.72 79.19
  Q 39.43 75.87 23.96 89.38
  Q 22.56 90.61 23.31 88.90
  Q 30.62 72.34 43.36 59.73
  Q 50.60 52.57 59.07 47.44
  Q 73.88 38.47 91.05 35.78
  Q 100.84 34.24 111.00 34.95
  Q 137.24 36.80 157.44 52.56
  Q 176.35 67.33 185.70 89.16
  Q 186.02 89.91 185.39 89.39
  Z"
/>
<path fill="#1d68af" d="
  M 188.53 120.62
  A 31.91 31.91 0.0 0 1 156.62 152.53
  A 31.91 31.91 0.0 0 1 124.71 120.62
  A 31.91 31.91 0.0 0 1 156.62 88.71
  A 31.91 31.91 0.0 0 1 188.53 120.62
  Z
  M 140.93 140.78
  Q 137.07 134.46 136.50 127.73
  Q 135.94 121.02 139.05 114.68
  Q 142.66 107.29 149.79 103.29
  Q 156.30 99.65 163.33 99.78
  Q 170.70 99.92 177.20 104.32
  Q 179.45 105.85 177.66 103.80
  Q 172.39 97.78 164.62 95.64
  Q 157.22 93.60 149.91 95.80
  Q 141.63 98.29 136.59 105.19
  Q 131.78 111.79 131.40 119.78
  Q 131.00 128.39 136.07 136.18
  Q 138.04 139.20 140.67 141.02
  Q 141.37 141.50 140.93 140.78
  Z
  M 153.4755 131.0616
  A 4.49 4.49 0.0 0 0 148.9777 126.5794
  L 148.3177 126.5806
  A 4.49 4.49 0.0 0 0 143.8355 131.0784
  L 143.8445 136.2184
  A 4.49 4.49 0.0 0 0 148.3423 140.7006
  L 149.0023 140.6994
  A 4.49 4.49 0.0 0 0 153.4845 136.2016
  L 153.4755 131.0616
  Z"
/>
<path fill="#1d68af" d="
  M 84.28 120.62
  A 31.91 31.91 0.0 0 1 52.37 152.53
  A 31.91 31.91 0.0 0 1 20.46 120.62
  A 31.91 31.91 0.0 0 1 52.37 88.71
  A 31.91 31.91 0.0 0 1 84.28 120.62
  Z
  M 73.59 104.96
  Q 66.45 97.84 58.25 96.01
  Q 49.81 94.12 41.62 98.07
  Q 35.28 101.13 31.32 107.08
  Q 27.60 112.68 27.04 119.55
  Q 25.99 132.44 36.47 141.76
  Q 38.72 143.76 36.92 141.57
  Q 32.87 136.65 32.27 130.25
  Q 30.87 115.29 42.39 106.16
  Q 50.23 99.96 61.00 100.75
  Q 67.84 101.25 72.55 104.98
  Q 72.78 105.16 72.98 105.48
  Q 73.34 106.02 73.53 105.87
  A 0.62 0.61 -41.7 0 0 73.59 104.96
  Z
  M 63.70 131.08
  A 4.49 4.49 0.0 0 0 59.21 126.59
  L 58.57 126.59
  A 4.49 4.49 0.0 0 0 54.08 131.08
  L 54.08 136.20
  A 4.49 4.49 0.0 0 0 58.57 140.69
  L 59.21 140.69
  A 4.49 4.49 0.0 0 0 63.70 136.20
  L 63.70 131.08
  Z"
/>
<path fill="#1d68af" d="
  M 94.20 208.94
  Q 92.68 208.60 88.00 207.75
  Q 68.87 204.29 52.59 192.13
  Q 31.10 176.09 21.80 150.43
  Q 21.33 149.15 22.26 150.14
  Q 26.55 154.73 31.96 157.72
  Q 36.86 160.42 43.40 161.74
  Q 70.53 167.21 87.69 144.19
  Q 90.93 139.83 93.55 131.16
  A 0.69 0.68 -81.3 0 1 94.20 130.67
  L 114.82 130.67
  A 0.70 0.66 81.1 0 1 115.46 131.17
  Q 121.76 152.12 140.42 159.67
  Q 149.99 163.54 159.98 162.72
  Q 175.13 161.47 186.88 150.26
  Q 187.74 149.43 187.30 150.54
  Q 181.77 164.36 173.21 176.99
  Q 162.96 192.10 147.80 202.30
  Q 124.42 218.03 96.57 220.82
  Q 92.13 221.27 85.42 221.20
  Q 76.80 221.11 74.25 221.00
  Q 73.62 220.97 73.73 220.56
  A 1.04 0.58 -10.8 0 1 74.35 220.04
  Q 85.11 216.15 94.29 209.36
  Q 94.70 209.06 94.20 208.94
  Z
  M 98.69 167.30
  Q 102.21 169.70 106.48 168.89
  Q 113.05 167.63 114.58 161.31
  A 0.41 0.41 6.7 0 0 114.18 160.81
  L 95.35 160.75
  A 0.77 0.76 79.4 0 0 94.64 161.80
  Q 96.08 165.52 98.69 167.30
  Z"
/>
</svg>
